# xmcd CD database file
#
# Track frame offsets:
#	150
#	12480
#	24575
#	36985
#	49030
#	62637
#	75695
#	87985
#	100257
#	111435
#	123897
#	136000
#	148282
#	159992
#	171475
#	183877
#	197750
#	210635
#	223160
#	234115
#
# Disc length: 3269 seconds
#
# Revision: 2
# Processed by: cddbd v1.5.2PL0 Copyright (c) Steve Scherf et al.
# Submitted via: CDex 1.70beta2
#
DISCID=190cc314
DTITLE=Flatt and Scruggs - Mountain Breakdown [CD1]
DYEAR=2006
DGENRE=Bluegrass
TTITLE0=God Loves his Children
TTITLE1=I'm Going to Make Heaven my Home
TTITLE2=We'll Meet Again Sweetheart
TTITLE3=My Cabin in Caroline
TTITLE4=Baby Blue Eyes
TTITLE5=Bouquet in Heaven
TTITLE6=Down the Road
TTITLE7=Why Don't You Tell me so?
TTITLE8=I'll Never Shed Another Tear
TTITLE9=No Mother or Dad
TTITLE10=Is It Too Late Now?
TTITLE11=Foggy Mountain Breakdown
TTITLE12=I'll be Going to Heaven Sometime
TTITLE13=So Happy I'll Be
TTITLE14=My Little Girl in Tennessee
TTITLE15=I'll Never Love Another
TTITLE16=Doin' My Time
TTITLE17=Pike County Breakdown
TTITLE18=Cora is Gone
TTITLE19=Preachin' Prayin' Singin'
EXTD=YEAR: 2006
EXTT0=
EXTT1=
EXTT2=
EXTT3=
EXTT4=
EXTT5=
EXTT6=
EXTT7=
EXTT8=
EXTT9=
EXTT10=
EXTT11=
EXTT12=
EXTT13=
EXTT14=
EXTT15=
EXTT16=
EXTT17=
EXTT18=
EXTT19=
PLAYORDER=
